<svg xmlns="http://www.w3.org/2000/svg" viewBox="0 0 74.85 30.29"><defs><style>.cls-1{font-size:24px;font-family:Bauhaus93, "Bauhaus 93";}</style></defs><title>Asset 1</title><g id="Layer_2" data-name="Layer 2"><g id="Layer_1-2" data-name="Layer 1"><text class="cls-1" transform="translate(22.05 23.21) scale(1.06 1)">Saim</text><path d="M27.71,2.82A2.33,2.33,0,0,0,24.79.56a2.2,2.2,0,0,0-.85.49,9.36,9.36,0,0,0-.66.85L21.92,3.72c-1.83,2.4-3.66,4.8-5.53,7.18C12.67,15.66,8.86,20.35,5,25l-2.9,3.48L2,28.73l-.07.09s0,0,0-.05a.29.29,0,0,0,0-.24.27.27,0,0,0-.17-.16s-.12,0-.06,0H2l2.26,0c3,.06,6,.08,9.06.17s6.05.17,9.07.29l4.53.23.56,0a.46.46,0,0,0,.39-.09.49.49,0,0,0,.19-.34l0-.56.15-2.27.15,2.27,0,.57a.88.88,0,0,1-.28.65.94.94,0,0,1-.66.25l-.56,0-4.53.22q-4.53.18-9.07.29c-3,.09-6,.11-9.06.17L2,30.29H1.69a2,2,0,0,1-.63-.11A1.67,1.67,0,0,1,.17,27.9a2,2,0,0,1,.18-.29l.11-.12.17-.22L3.5,23.76c3.85-4.65,7.72-9.29,11.69-13.85,2-2.29,4-4.55,6-6.81L22.7,1.42a8.19,8.19,0,0,1,.83-.85A2.77,2.77,0,0,1,24.67,0,2.7,2.7,0,0,1,27,.7,2.48,2.48,0,0,1,27.71,2.82Z"/></g></g></svg>