<svg xmlns="http://www.w3.org/2000/svg" viewBox="0 0 447.56 477.4"><defs><style>.cls-1{fill:#b22222;}</style></defs><title>fiver-logo</title><g id="Layer_2" data-name="Layer 2"><g id="Layer_1-2" data-name="Layer 1"><path class="cls-1" d="M186.48,0H238.7V89.4c-15,0-29.13,0-43.26,0-10.55,0-20.21,2.83-28.65,9.33-16.79,12.93-19.11,30.8-17.32,50.66H388V388.13h59.58V477.4H238.7V387.75H299V238.94H149.42V388.1h59.44v89.3H0V387.79H59.51V238.45H.43v-89.4H59.52a12.41,12.41,0,0,0,.23-1.47c0-3.26,0-6.52,0-9.78-.08-27.36,6.42-52.9,21.48-75.92,18.4-28.12,43.65-47.27,76.1-56.33C166.84,2.9,176.76,1.81,186.48,0Z"/><path class="cls-1" d="M346.86,0c5.55,1.77,11.46,2.83,16.59,5.43,16.28,8.26,25.75,26.31,24.07,42.73-2.14,21-16.53,35.75-34.69,40.08-29.34,7-57.26-18.46-53.85-48.42,2.27-20,18.62-36.91,38.3-39A9.43,9.43,0,0,0,339.4,0Z"/></g></g></svg>