<svg xmlns="http://www.w3.org/2000/svg" viewBox="0 0 301 301"><defs><style>.cls-1{fill:#b22222;}</style></defs><title>insta-logo</title><g id="Layer_2" data-name="Layer 2"><g id="Layer_1-2" data-name="Layer 1"><path class="cls-1" d="M301,72.9V228.1c-.18.75-.41,1.5-.52,2.26-4.81,33.1-23,55.4-54.41,66.63-5.73,2.05-12,2.71-18,4H72.9a17.18,17.18,0,0,0-2-.49C37.68,295.79,15.3,277.61,4,246.06c-2.06-5.73-2.7-12-4-18V72.9C.19,72,.46,71,.56,70.08,3.7,39.68,26.54,12.15,56,3.59,61.52,2,67.26,1.18,72.9,0H228.1c.76.18,1.5.41,2.27.52,32.76,4.67,54.92,22.64,66.36,53.58C298.94,60.07,299.62,66.62,301,72.9Zm-52.91,77.66q0-21.9,0-43.79C248,76.25,224.82,53,194.35,52.92q-43.93-.06-87.87,0a53.79,53.79,0,0,0-10.22.89c-25.85,5.09-43.32,26.41-43.34,52.8q0,43.65,0,87.29c0,30.9,23.18,54.13,54,54.15q43.5,0,87,0c30.91,0,54.11-23.19,54.15-54Q248.11,172.31,248.09,150.56Z"/><path class="cls-1" d="M230.45,150.49q0,21.88,0,43.78c0,20.75-15.45,36.16-36.23,36.18q-43.78,0-87.57,0c-20.59,0-36.08-15.48-36.1-36q0-43.92,0-87.85c0-20.55,15.51-36,36.09-36q43.92,0,87.85,0c20.42,0,35.91,15.48,36,35.85C230.48,121.1,230.45,135.8,230.45,150.49Zm-124,0a44.09,44.09,0,1,0,44.13-44A44.19,44.19,0,0,0,106.41,150.45Zm103.45-50.4a8.81,8.81,0,1,0-8.84,8.7A8.9,8.9,0,0,0,209.86,100.05Z"/><path class="cls-1" d="M150.42,124.05a26.45,26.45,0,1,1-26.37,26.38A26.48,26.48,0,0,1,150.42,124.05Z"/></g></g></svg>