<svg xmlns="http://www.w3.org/2000/svg" viewBox="0 0 151.21 60.33"><defs><style>.cls-1{font-size:48.8px;font-family:Bauhaus93, "Bauhaus 93";}.cls-1,.cls-2{fill:#9932cc;}</style></defs><title>logo-purple_1</title><g id="Layer_2" data-name="Layer 2"><g id="Layer_1-2" data-name="Layer 1"><text class="cls-1" transform="translate(43.84 46.95) scale(1.06 1)">Saim</text><path class="cls-2" d="M55.34,5.48a5.21,5.21,0,0,0-.44-2.22,4.74,4.74,0,0,0-1.38-1.75,5.49,5.49,0,0,0-2-.94,5.12,5.12,0,0,0-2.17,0,4.88,4.88,0,0,0-1.88,1A16.78,16.78,0,0,0,46,3.36L43.19,7,31.7,21.39Q20.17,35.78,8.45,50l-5.88,7.1-.36.44L2,57.73,2,57.8a.42.42,0,0,0,0,.33.47.47,0,0,0,.24.24.43.43,0,0,0,.21,0H3l4.61,0L26,58.59l18.42.29,9.22.22,1.15,0A1.2,1.2,0,0,0,56.18,58l0-1.14.15-4.61.15,4.61,0,1.15A1.59,1.59,0,0,1,56,59.18a1.64,1.64,0,0,1-1.2.42l-1.15,0-9.22.23L26,60.15l-18.42.16L3,60.33H2.42a2.4,2.4,0,0,1-.91-.15A2.3,2.3,0,0,1,.17,58.84a2.28,2.28,0,0,1,.08-1.91,2.8,2.8,0,0,1,.25-.41l.2-.24.36-.44L6.9,48.71q11.75-14.2,23.6-28.3l11.94-14,3-3.49a18.22,18.22,0,0,1,1.6-1.73,5.08,5.08,0,0,1,4.57-1,5.62,5.62,0,0,1,2.09,1.11A5,5,0,0,1,55,3.2,5.39,5.39,0,0,1,55.34,5.48Z"/></g></g></svg>